<svg xmlns="http://www.w3.org/2000/svg" viewBox="0 0 313.53 60.99"><defs><style>.cls-1{fill:#1147f1;}</style></defs><title>hf_logo_color</title><g id="Warstwa_2" data-name="Warstwa 2"><g id="Warstwa_1-2" data-name="Warstwa 1"><path class="cls-1" d="M152.92,0a10.77,10.77,0,0,0-7.14,2.23,11.38,11.38,0,0,0-3.7,6.4l-9.23,43.11a5,5,0,0,1-1.35,2.78,3.55,3.55,0,0,1-2.59.85h-3.34L122.38,61h6.47A10.72,10.72,0,0,0,136,58.76a11.31,11.31,0,0,0,3.69-6.4l9.23-43.11a5.22,5.22,0,0,1,1.35-2.79,3.7,3.7,0,0,1,2.6-.84h3.34L159.4,0Z"/><path class="cls-1" d="M25.72,20.26a8,8,0,0,1,2.42,6.21,13.91,13.91,0,0,1-.32,2.93L25.08,43H18L20.6,29.85a7.38,7.38,0,0,0,.19-1.68,3.87,3.87,0,0,0-1.05-2.93,4.44,4.44,0,0,0-3.16-1A6.65,6.65,0,0,0,12,25.81a8.22,8.22,0,0,0-2.45,4.73L7.13,43H0L6.76,9.11h7.13L11.6,20.67a11.57,11.57,0,0,1,7.59-2.6A9.36,9.36,0,0,1,25.72,20.26Z"/><path class="cls-1" d="M58.94,18.43,42.59,44.66a19.11,19.11,0,0,1-5.14,5.94,10.89,10.89,0,0,1-6.1,1.64,12.42,12.42,0,0,1-3.77-.59,7.85,7.85,0,0,1-2.9-1.56L28,45a5.61,5.61,0,0,0,3.93,1.5,4.08,4.08,0,0,0,2.37-.68,8,8,0,0,0,2.06-2.33l.23-.41L30.89,18.43H38l3.65,16.72L51.91,18.43Z"/><path class="cls-1" d="M80.49,19.39a9.89,9.89,0,0,1,3.88,3.82,11.5,11.5,0,0,1,1.44,5.87A14.94,14.94,0,0,1,84,36.41a13.43,13.43,0,0,1-4.91,5.12,13.28,13.28,0,0,1-6.9,1.85q-5.62,0-8-3.66L61.83,51.87H54.7l6.67-33.44h6.76l-.5,2.43a10.77,10.77,0,0,1,7.54-2.79A11,11,0,0,1,80.49,19.39ZM75.12,36.46a7,7,0,0,0,2.56-2.86,9.27,9.27,0,0,0,.91-4.2,5.33,5.33,0,0,0-1.48-4A5.67,5.67,0,0,0,73,24a6.81,6.81,0,0,0-3.7,1,7,7,0,0,0-2.55,2.86,9.21,9.21,0,0,0-.92,4.2,5.38,5.38,0,0,0,1.46,4,5.56,5.56,0,0,0,4.12,1.46A6.93,6.93,0,0,0,75.12,36.46Z"/><path class="cls-1" d="M113.93,32.64H95.1c.25,3.35,2.36,5,6.35,5a10.78,10.78,0,0,0,3.59-.6l3.33-1.15L111,40.09a14.16,14.16,0,0,1-4.7,2.46,18.7,18.7,0,0,1-5.58.83A15.34,15.34,0,0,1,94.08,42a10,10,0,0,1-4.39-3.86,10.94,10.94,0,0,1-1.53-5.8A14.62,14.62,0,0,1,90,25a13.24,13.24,0,0,1,5.14-5.12,15,15,0,0,1,7.49-1.85,13.61,13.61,0,0,1,6.19,1.32,9.65,9.65,0,0,1,4.07,3.8,11.09,11.09,0,0,1,1.44,5.71A19.55,19.55,0,0,1,113.93,32.64ZM98.07,24.76a7.21,7.21,0,0,0-2.46,3.72H107.8a4.77,4.77,0,0,0-1.48-3.72,5.71,5.71,0,0,0-4-1.35A6.73,6.73,0,0,0,98.07,24.76Z"/><path class="cls-1" d="M130.41,18.85a16.3,16.3,0,0,1,5.32-.78l-1.28,6.58c-.85-.06-1.4-.09-1.64-.09a7.92,7.92,0,0,0-5.19,1.59,8.41,8.41,0,0,0-2.63,5L122.62,43h-7.13l4.89-24.58h6.76l-.59,2.93A9.09,9.09,0,0,1,130.41,18.85Z"/><path class="cls-1" d="M154,42a10.27,10.27,0,0,1-4.34-3.86,10.82,10.82,0,0,1-1.53-5.78A14.07,14.07,0,0,1,150,25.06a13.8,13.8,0,0,1,5.3-5.12A15.46,15.46,0,0,1,163,18.07a14.68,14.68,0,0,1,6.53,1.37,10.21,10.21,0,0,1,4.32,3.86,10.82,10.82,0,0,1,1.53,5.78,14.16,14.16,0,0,1-1.9,7.31,13.51,13.51,0,0,1-5.3,5.11,15.6,15.6,0,0,1-7.65,1.88A14.71,14.71,0,0,1,154,42Zm10.67-5.55a7,7,0,0,0,2.56-2.86,9.27,9.27,0,0,0,.91-4.2,5.4,5.4,0,0,0-1.46-4A5.59,5.59,0,0,0,162.54,24a6.84,6.84,0,0,0-6.31,3.89,9.21,9.21,0,0,0-.91,4.2,5.31,5.31,0,0,0,1.48,4,5.62,5.62,0,0,0,4.14,1.46A6.89,6.89,0,0,0,164.64,36.46Z"/><path class="cls-1" d="M191.46,18.85a16.34,16.34,0,0,1,5.32-.78l-1.28,6.58c-.85-.06-1.4-.09-1.64-.09a7.94,7.94,0,0,0-5.19,1.59,8.35,8.35,0,0,0-2.62,5L183.67,43h-7.13l4.89-24.58h6.76l-.59,2.93A9.09,9.09,0,0,1,191.46,18.85Z"/><path class="cls-1" d="M237.17,20.24a7.91,7.91,0,0,1,2.37,6.14,15.21,15.21,0,0,1-.32,3L236.53,43H229.4L232,29.9a9.64,9.64,0,0,0,.19-1.87,3.75,3.75,0,0,0-1-2.83,4,4,0,0,0-2.9-1q-5.16,0-6.44,6.16L219.35,43h-7.13l2.61-13.11a9.46,9.46,0,0,0,.18-1.83,3.86,3.86,0,0,0-1-2.85,3.92,3.92,0,0,0-2.9-1q-5.17,0-6.49,6.25L202.17,43h-7.12l4.88-24.58h6.77L206.15,21a11,11,0,0,1,7.72-2.92,9.67,9.67,0,0,1,4.54,1,6.78,6.78,0,0,1,3,3,11.85,11.85,0,0,1,4.15-3,12.92,12.92,0,0,1,5.21-1A9.12,9.12,0,0,1,237.17,20.24Z"/><path class="cls-1" d="M270.19,18.43,265.3,43h-6.76l.5-2.65a10.45,10.45,0,0,1-3.66,2.26,12.31,12.31,0,0,1-4.34.76,9.07,9.07,0,0,1-6.41-2.2,7.91,7.91,0,0,1-2.4-6.16,13.38,13.38,0,0,1,.32-3l2.69-13.62h7.13l-2.6,13.16a8.09,8.09,0,0,0-.19,1.78q0,3.84,4.11,3.84a6.43,6.43,0,0,0,4.46-1.58,8.39,8.39,0,0,0,2.4-4.72l2.51-12.48Z"/><path class="cls-1" d="M277.44,9.11h7.13L277.81,43h-7.13Z"/><path class="cls-1" d="M313.53,18.43,308.64,43h-6.76l.45-2.42a11.42,11.42,0,0,1-12.83,1.46,9.81,9.81,0,0,1-3.86-3.81,11.53,11.53,0,0,1-1.44-5.87A14.91,14.91,0,0,1,286,25a13.24,13.24,0,0,1,11.77-7c3.77,0,6.44,1.23,8,3.7l.64-3.34Zm-12.79,18a7,7,0,0,0,2.55-2.86,9.27,9.27,0,0,0,.92-4.2,5.34,5.34,0,0,0-1.49-4A5.66,5.66,0,0,0,298.59,24a6.84,6.84,0,0,0-6.31,3.89,9.21,9.21,0,0,0-.91,4.2,5.31,5.31,0,0,0,1.48,4A5.62,5.62,0,0,0,297,37.48,7,7,0,0,0,300.74,36.46Z"/></g></g></svg>